<?xml version="1.0" encoding="UTF-8"?>
<svg version="1.1" xmlns="http://www.w3.org/2000/svg" width="622" height="430">
<path d="M0 0 C205.26 0 410.52 0 622 0 C622 141.9 622 283.8 622 430 C416.74 430 211.48 430 0 430 C0 288.1 0 146.2 0 0 Z " fill="#EAEAEA" transform="translate(0,0)"/>
<path d="M0 0 C1.48886719 0.86915039 1.48886719 0.86915039 3.0078125 1.75585938 C8.77692316 5.13264789 14.52357258 8.54497239 20.2578125 11.98046875 C25.98687407 15.41116444 31.75610149 18.76448824 37.5625 22.0625 C39.25781802 23.02603196 40.95313044 23.98957376 42.6484375 24.953125 C43.50920898 25.44232422 44.36998047 25.93152344 45.25683594 26.43554688 C51.50694508 30.00004486 57.73348511 33.60565267 63.96337891 37.20532227 C69.06576444 40.15335886 74.16914506 43.09949338 79.28129578 46.03056335 C81.03604676 47.0367597 82.79019891 48.04399242 84.54418945 49.05151367 C86.73167315 50.30759737 88.92023278 51.56181007 91.11010742 52.8137207 C110.47170867 63.94341733 110.47170867 63.94341733 112 67 C112.36908076 70.91225609 112.53991435 73.18545766 110.33496094 76.51196289 C107.82521932 79.18623901 105.52845121 80.71867943 102.328125 82.49609375 C101.20132324 83.12974854 100.07452148 83.76340332 98.91357422 84.41625977 C97.69239025 85.09001999 96.47119865 85.76376639 95.25 86.4375 C93.98254608 87.14712584 92.71579035 87.85800003 91.44970703 88.57006836 C89.51277415 89.65936878 87.57551579 90.74801771 85.63613892 91.83296204 C79.6729272 95.17012598 73.76833697 98.60352907 67.875 102.0625 C58.63642223 107.47063485 49.36944178 112.82758988 40.09057617 118.16625977 C34.16777257 121.57933337 28.25894783 125.01415292 22.3671875 128.48046875 C21.72551132 128.85778641 21.08383514 129.23510406 20.42271423 129.62385559 C17.32378431 131.44671674 14.22658862 133.27242669 11.13208008 135.1027832 C-17.46600556 151.94923391 -17.46600556 151.94923391 -34.67578125 148.45703125 C-41.60009763 145.90974388 -47.96270283 141.61967348 -54.265625 137.828125 C-59.15462771 134.89145587 -64.10328245 132.06598891 -69.0625 129.25 C-76.73714059 124.8818923 -84.37776289 120.45888949 -92 116 C-99.43755494 111.65040351 -106.8896571 107.32935412 -114.375 103.0625 C-115.20733154 102.58731934 -116.03966309 102.11213867 -116.8972168 101.62255859 C-120.7005284 99.4514009 -124.50456301 97.28157299 -128.31201172 95.11767578 C-131.2394805 93.45377016 -134.16359564 91.7840831 -137.08599854 90.11129761 C-138.76204241 89.15382488 -140.44127787 88.20194574 -142.12060547 87.25024414 C-157.89603406 78.20793188 -157.89603406 78.20793188 -160 74 C-160.5 70.75 -160.5 70.75 -160 67 C-154.57656583 61.55399953 -148.28089004 58.13607318 -141.5625 54.5 C-139.31149041 53.26094695 -137.06151509 52.02001335 -134.8125 50.77734375 C-133.67425781 50.14940918 -132.53601563 49.52147461 -131.36328125 48.87451172 C-126.22099601 46.00847905 -121.13932032 43.04254744 -116.0625 40.0625 C-107.72675288 35.17581479 -99.37379858 30.32122138 -91 25.5 C-82.42674501 20.56005611 -73.86190462 15.60612215 -65.3125 10.625 C-64.31790771 10.04645264 -63.32331543 9.46790527 -62.29858398 8.87182617 C-57.31534396 5.9653894 -52.36812752 3.01341156 -47.46142578 -0.02026367 C-30.37222625 -10.5246945 -17.1770647 -10.11273176 0 0 Z " fill="#010101" transform="translate(345,24)"/>
<path d="M0 0 C4.81584939 1.81481482 9.15890195 4.20054891 13.63525391 6.72021484 C16.29530234 8.1598157 18.99982374 9.46894484 21.73046875 10.76953125 C22.71660156 11.24285889 23.70273437 11.71618652 24.71875 12.20385742 C26.65893566 13.13262557 28.60282464 14.05370722 30.55078125 14.96606445 C36.00026354 17.62553352 39.63966752 19.89448467 43 25 C46.1256042 34.31148647 43.7153136 45.29448767 41.8125 54.625 C41.35524108 56.97912246 40.89821706 59.33329055 40.44140625 61.6875 C40.20437988 62.88632812 39.96735352 64.08515625 39.72314453 65.3203125 C38.52550677 71.41443684 37.38727247 77.5193764 36.25 83.625 C36.03964111 84.73182129 35.82928223 85.83864258 35.61254883 86.97900391 C34.60550727 92.35236348 33.76559123 97.67567813 33.21533203 103.11425781 C32.2499459 111.56850099 28.91412227 118.94741268 22.29272461 124.40795898 C17.72961908 127.93173699 13.01174858 130.84340506 7.9375 133.5625 C6.34195665 134.43399701 4.74692939 135.30643938 3.15234375 136.1796875 C2.31429199 136.63698242 1.47624023 137.09427734 0.61279297 137.56542969 C-3.94601389 140.06847109 -8.47313505 142.62726534 -13 145.1875 C-13.95044189 145.72455566 -14.90088379 146.26161133 -15.88012695 146.81494141 C-24.60396957 151.7552011 -33.28700378 156.76558525 -41.95703125 161.79956055 C-44.96583747 163.54288988 -47.98052247 165.27522574 -51 167 C-52.00095703 167.57379395 -53.00191406 168.14758789 -54.03320312 168.73876953 C-54.99677734 169.28001465 -55.96035156 169.82125977 -56.953125 170.37890625 C-57.80551758 170.86045166 -58.65791016 171.34199707 -59.53613281 171.83813477 C-65.90858287 174.84313772 -74.22426906 175.54625553 -80.94091797 173.37158203 C-90.62004536 169.52094727 -99.61367374 164.05134078 -108.51171875 158.6875 C-113.31598612 155.79323483 -118.18544627 153.01931358 -123.0625 150.25 C-131.65968362 145.35877145 -140.20249176 140.37942923 -148.73388672 135.37451172 C-157.37900348 130.32162618 -166.11202166 125.43293151 -174.89160156 120.61767578 C-176.37418457 119.79759033 -176.37418457 119.79759033 -177.88671875 118.9609375 C-178.75514404 118.48446777 -179.62356934 118.00799805 -180.51831055 117.51708984 C-187.32062907 113.35874185 -187.32062907 113.35874185 -189 110 C-189.40996195 106.92528536 -189.65811382 104.95576372 -189 102 C-184.6173777 96.52106063 -177.5973691 93.29113933 -171.5625 90 C-169.49394024 88.85179296 -167.42625828 87.70200337 -165.359375 86.55078125 C-163.77479492 85.670271 -163.77479492 85.670271 -162.15820312 84.77197266 C-157.17207212 81.97440472 -152.24252262 79.08245275 -147.3125 76.1875 C-138.61414426 71.09131369 -129.8828466 66.05559389 -121.125 61.0625 C-111.92322404 55.8161318 -102.73396345 50.54929473 -93.5625 45.25 C-85.04751547 40.3303585 -76.52083144 35.4323168 -67.97753906 30.56201172 C-62.03595736 27.17184177 -56.11052172 23.7544727 -50.18945312 20.32861328 C-11.58417878 -2.00506264 -11.58417878 -2.00506264 0 0 Z " fill="#040404" transform="translate(476,248)"/>
<path d="M0 0 C4.31439939 1.94569835 8.37349123 4.30816372 12.44140625 6.71875 C13.85703857 7.555271 13.85703857 7.555271 15.30126953 8.40869141 C20.6554132 11.58758165 25.98647801 14.80299457 31.30859375 18.03515625 C36.45923041 21.15021672 41.66274953 24.1393879 46.94140625 27.03125 C53.18170059 30.45153157 59.34274574 33.97702941 65.46435547 37.60522461 C72.30221463 41.65248951 79.18214411 45.62613853 86.06640625 49.59375 C87.18144531 50.23658936 88.29648437 50.87942871 89.4453125 51.54174805 C90.50878906 52.15445557 91.57226562 52.76716309 92.66796875 53.3984375 C93.67110107 53.9766626 94.6742334 54.5548877 95.70776367 55.15063477 C97.996291 56.46341596 100.29313194 57.75940918 102.59375 59.05078125 C105.4958064 60.75061401 106.97648998 61.70274591 108.44140625 64.71875 C109.03359276 69.28704594 108.6474776 72.33697418 105.97338867 76.13964844 C102.62734648 79.58860475 98.1158057 81.50108446 93.87890625 83.65625 C91.89310211 84.701717 89.90870965 85.74987008 87.92578125 86.80078125 C86.97767578 87.3004541 86.02957031 87.80012695 85.05273438 88.31494141 C76.59224546 92.31770608 76.59224546 92.31770608 70.44140625 98.71875 C70.12897337 100.98668884 70.12897337 100.98668884 70.06640625 103.53125 C69.99292969 104.80935547 69.99292969 104.80935547 69.91796875 106.11328125 C70.66117341 109.81266563 72.53240758 111.53016292 75.44140625 113.71875 C78.9288474 115.9782967 82.51629564 118.04184525 86.12890625 120.09375 C106.42890625 131.69375 106.42890625 131.69375 108.44140625 135.71875 C109.02339239 144.59403868 109.02339239 144.59403868 105.44140625 148.71875 C98.28451422 154.17475636 90.18435538 158.2154294 82.25390625 162.40625 C80.99652551 163.07576021 79.73936268 163.74567984 78.48242188 164.41601562 C75.14099466 166.19440408 71.79715907 167.96747556 68.44140625 169.71875 C67.38767822 170.27127441 66.3339502 170.82379883 65.24829102 171.39306641 C59.69353868 174.01655994 53.40303034 173.8045047 47.44140625 172.71875 C42.56866872 170.97191956 38.22366108 168.65027986 33.75390625 166.05810547 C31.23959223 164.6018632 28.70246693 163.19191976 26.16015625 161.78515625 C15.04915242 155.60478664 4.07122058 149.19421509 -6.89257812 142.75732422 C-13.75196938 138.73945498 -20.66210841 134.82979502 -27.67700195 131.08911133 C-36.20267345 126.46166023 -44.3414416 121.41228629 -47.51049805 111.8449707 C-50.63681949 100.30558681 -52.64333279 88.62660102 -54.62109375 76.84375 C-54.96224102 74.83973306 -55.30403483 72.83582607 -55.64648438 70.83203125 C-56.14852436 67.89275366 -56.64960877 64.95333823 -57.14675903 62.01322937 C-57.89869928 57.56653705 -58.6595647 53.12207267 -59.45458984 48.68286133 C-59.66274574 47.5203334 -59.66274574 47.5203334 -59.87510681 46.33432007 C-60.13071312 44.91410662 -60.38831958 43.49425088 -60.64845276 42.07485962 C-63.04528726 28.76710978 -63.04528726 28.76710978 -59.55859375 22.40625 C-54.39354878 15.29721832 -45.94899829 12.36356933 -38.18920898 8.81835938 C-34.66371687 7.20679321 -31.206511 5.56587877 -27.8359375 3.6484375 C-18.38334057 -1.61603024 -10.47734485 -3.77230418 0 0 Z " fill="#010101" transform="translate(183.55859375,249.28125)"/>
<path d="M0 0 C2.20155334 1.51860046 2.20155334 1.51860046 4 4 C4.38954452 6.87476909 4.53737226 9.36476041 4.50170898 12.23754883 C4.50981346 13.47976952 4.50981346 13.47976952 4.51808167 14.74708557 C4.53058565 17.48409808 4.51406289 20.22006178 4.49609375 22.95703125 C4.49624874 24.86268672 4.49773778 26.7683425 4.50050354 28.67399597 C4.50188843 32.66960575 4.48931787 36.66485698 4.46655273 40.66040039 C4.43822569 45.77155382 4.44088857 50.88210887 4.45364285 55.99330616 C4.46061435 59.9302426 4.45279297 63.86704188 4.44038582 67.8039608 C4.43588154 69.6877356 4.43552555 71.57152519 4.43945122 73.45530128 C4.44237638 76.09526085 4.42579249 78.73441059 4.40405273 81.37426758 C4.41080521 82.53333618 4.41080521 82.53333618 4.41769409 83.71582031 C4.33788522 89.57749196 3.19447918 94.34288851 -0.63867188 98.98413086 C-6.18385602 103.66010591 -12.12282644 107.13464485 -18.5 110.5625 C-20.74579483 111.79504892 -22.99056235 113.02947127 -25.234375 114.265625 C-26.36681641 114.88759766 -27.49925781 115.50957031 -28.66601562 116.15039062 C-33.73752592 118.963935 -38.74711914 121.87909406 -43.75 124.8125 C-44.72557861 125.38387695 -45.70115723 125.95525391 -46.70629883 126.54394531 C-48.73847036 127.73545082 -50.77011697 128.92785202 -52.80126953 130.12109375 C-56.17722613 132.10410108 -59.55516943 134.08370156 -62.93359375 136.0625 C-76.99746921 144.30137726 -76.99746921 144.30137726 -91.04972839 152.56004333 C-93.70579228 154.12333533 -96.36269807 155.6851932 -99.01968384 157.24691772 C-100.28441114 157.99084537 -101.54872352 158.73547893 -102.81259155 159.48086548 C-104.57064098 160.51765933 -106.33009342 161.55203399 -108.08984375 162.5859375 C-109.08878662 163.1742334 -110.08772949 163.7625293 -111.11694336 164.36865234 C-119.30185573 169 -119.30185573 169 -123.6875 169 C-127 168 -127 168 -128.68276978 165.96617126 C-130.38682141 162.12894608 -130.42001135 158.66137108 -130.38818359 154.54125977 C-130.39344055 153.70160675 -130.39869751 152.86195374 -130.40411377 151.99685669 C-130.41729033 149.22818256 -130.40858323 146.46008598 -130.3984375 143.69140625 C-130.4004591 141.76236359 -130.40337126 139.83332167 -130.40713501 137.90428162 C-130.41155535 133.86344112 -130.40513731 129.82279975 -130.39111328 125.78198242 C-130.3740331 120.60912733 -130.38385707 115.43673961 -130.40183067 110.26390171 C-130.4126861 106.28070066 -130.40921388 102.29760987 -130.4014473 98.31440544 C-130.39944956 96.4074695 -130.40188955 94.50052347 -130.40888596 92.59359932 C-130.41652808 89.9248426 -130.40485719 87.25683583 -130.38818359 84.58813477 C-130.39425629 83.80404739 -130.40032898 83.01996002 -130.40658569 82.21211243 C-130.33673917 76.15957889 -128.97119534 72.00345713 -124.61328125 67.57421875 C-120.09917681 64.09040207 -114.98191221 61.49360024 -109.98208618 58.78512573 C-106.92566258 57.12861223 -103.8815443 55.44972928 -100.8359375 53.7734375 C-100.23612564 53.44397629 -99.63631378 53.11451508 -99.01832581 52.77507019 C-94.4045165 50.23645219 -89.83962509 47.6271516 -85.3125 44.9375 C-84.6623291 44.55142578 -84.0121582 44.16535156 -83.34228516 43.76757812 C-81.97990987 42.95774923 -80.61777445 42.14751667 -79.25585938 41.33691406 C-74.70458709 38.6396449 -70.13253866 35.97780475 -65.5625 33.3125 C-64.55396973 32.7242041 -63.54543945 32.1359082 -62.50634766 31.52978516 C-53.82061654 26.46845339 -45.12271721 21.42802901 -36.40112305 16.42871094 C-31.37176093 13.54304257 -26.36600321 10.63272975 -21.41796875 7.609375 C-20.56050049 7.09205811 -19.70303223 6.57474121 -18.81958008 6.04174805 C-17.24934618 5.09157855 -15.68713731 4.12794595 -14.13549805 3.14770508 C-9.18086291 0.17125856 -5.79300554 -0.8319096 0 0 Z " fill="#020202" transform="translate(461,126)"/>
<path d="M0 0 C4.84836505 1.04588648 8.92071274 3.77334174 13.12353516 6.31103516 C14.13617432 6.90343994 15.14881348 7.49584473 16.19213867 8.10620117 C18.26160362 9.3181934 20.32699404 10.53717056 22.38818359 11.76318359 C25.73678387 13.75131012 29.10879735 15.69576434 32.48583984 17.63500977 C39.29759966 21.55169816 46.07535169 25.52755454 52.86083984 29.48950195 C62.39431216 35.05584458 71.93682647 40.60580611 81.49853516 46.12353516 C82.57731934 46.74631348 83.65610352 47.3690918 84.76757812 48.01074219 C89.95938991 51.00405667 95.15810924 53.98403591 100.37353516 56.93603516 C101.32462158 57.47534668 102.27570801 58.0146582 103.25561523 58.5703125 C105.01910671 59.568918 106.78442554 60.56430703 108.55200195 61.55566406 C122.57955714 69.50075239 122.57955714 69.50075239 124.31103516 74.49853516 C124.50227777 77.38477733 124.58421952 80.17341476 124.56982422 83.05908203 C124.57508118 84.3524221 124.57508118 84.3524221 124.58044434 85.67189026 C124.58924284 88.52043725 124.58341912 91.36873565 124.57666016 94.21728516 C124.57800735 96.19738818 124.57994833 98.17749088 124.5824585 100.15759277 C124.58540721 104.30691681 124.5811202 108.45615472 124.57177734 112.60546875 C124.56038299 117.9253093 124.56694381 123.24494804 124.57892227 128.56478119 C124.58614766 132.65339683 124.58384981 136.74196459 124.57866669 140.83058167 C124.57733207 142.79220097 124.57897133 144.75382461 124.58362579 146.71543884 C124.58870212 149.45640588 124.58096516 152.19704563 124.56982422 154.93798828 C124.57387268 155.74953873 124.57792114 156.56108917 124.58209229 157.39723206 C124.52900956 164.44315852 124.52900956 164.44315852 122.31103516 167.49853516 C118.9623835 169.17286099 115.91023322 169.14759436 112.31103516 168.49853516 C108.09342488 166.65028325 104.23389539 164.27506536 100.31103516 161.87353516 C99.15989313 161.18632631 98.00769183 160.50088904 96.85449219 159.81713867 C94.48637581 158.41033503 92.12375917 156.99492646 89.76513672 155.57226562 C84.60729893 152.46666991 79.39332109 149.45767443 74.18603516 146.43603516 C72.19860718 145.27664792 70.21162762 144.11649165 68.22509766 142.95556641 C66.7579834 142.09825928 66.7579834 142.09825928 65.26123047 141.22363281 C62.32670893 139.50770024 59.39305333 137.79029438 56.45947266 136.07275391 C48.00447227 131.12682061 39.54485487 126.19105821 31.03369141 121.34228516 C30.41632111 120.99044159 29.79895081 120.63859802 29.16287231 120.27609253 C26.17360769 118.57332458 23.18257319 116.8738406 20.18896484 115.17871094 C14.52106117 111.95713904 8.87762388 108.69592308 3.29150391 105.33447266 C1.74885864 104.41093994 1.74885864 104.41093994 0.17504883 103.46875 C-5.15181742 99.80428741 -8.04995165 96.78837831 -9.68896484 90.49853516 C-9.88282879 87.62818501 -9.98284167 84.85516202 -9.97949219 81.98632812 C-9.98620941 81.15307007 -9.99292664 80.31981201 -9.99984741 79.46130371 C-10.01876725 76.72104859 -10.02274775 73.98103892 -10.02490234 71.24072266 C-10.03133159 69.33073832 -10.03806005 67.42075498 -10.04507446 65.51077271 C-10.05703008 61.51464553 -10.06075676 57.51860473 -10.05957031 53.52246094 C-10.05936656 48.39981672 -10.08673395 43.27772379 -10.12111473 38.15521049 C-10.1433323 34.21413622 -10.14740953 30.27319608 -10.14635086 26.33206558 C-10.14871207 24.44299535 -10.15756476 22.5539217 -10.17301559 20.66491318 C-10.19258322 18.02686325 -10.18687566 15.39002197 -10.17480469 12.75195312 C-10.1860437 11.97159698 -10.19728271 11.19124084 -10.2088623 10.38723755 C-10.1682406 6.89864725 -9.96396173 4.87557781 -7.88198853 2.02102661 C-5.25537914 0.19752129 -3.18413742 -0.17277125 0 0 Z " fill="#020202" transform="translate(186.68896484375,125.50146484375)"/>
<path d="M0 0 C0.1079859 2.43868168 0.18726589 4.87259133 0.25 7.3125 C0.30027344 8.34793945 0.30027344 8.34793945 0.3515625 9.40429688 C0.390625 11.42578125 0.390625 11.42578125 0 15 C-2.88860546 17.78111853 -5.92499544 18.78992048 -9.7265625 19.90234375 C-11.39912109 20.40217773 -11.39912109 20.40217773 -13.10546875 20.91210938 C-14.26691406 21.25048828 -15.42835938 21.58886719 -16.625 21.9375 C-18.91010029 22.60905552 -21.1939782 23.28478563 -23.4765625 23.96484375 C-24.48799316 24.2599585 -25.49942383 24.55507324 -26.54150391 24.85913086 C-31.1020858 26.36354983 -35.54116688 28.21646675 -40 30 C-40.33 41.55 -40.66 53.1 -41 65 C-35.8334375 63.5459375 -35.8334375 63.5459375 -30.5625 62.0625 C-28.93163452 61.60629272 -28.93163452 61.60629272 -27.26782227 61.14086914 C-26.41760498 60.89973389 -25.5673877 60.65859863 -24.69140625 60.41015625 C-23.37958374 60.04096069 -23.37958374 60.04096069 -22.04125977 59.66430664 C-20.02885154 59.18004206 -20.02885154 59.18004206 -19 58 C-18.76572222 55.98405418 -18.58663876 53.961526 -18.4375 51.9375 C-18.35371094 50.83277344 -18.26992188 49.72804688 -18.18359375 48.58984375 C-18.09271484 47.30787109 -18.09271484 47.30787109 -18 46 C-19.299375 46.495 -19.299375 46.495 -20.625 47 C-23.9740793 47.99231979 -26.53279943 48.24189771 -30 48 C-31 47 -31 47 -31.09765625 44.05859375 C-31.08605469 42.86363281 -31.07445312 41.66867187 -31.0625 40.4375 C-31.05347656 39.23996094 -31.04445313 38.04242188 -31.03515625 36.80859375 C-31.02355469 35.88175781 -31.01195312 34.95492187 -31 34 C-25.65013336 30.92667235 -20.19259638 28.97065883 -14.3125 27.1875 C-13.57588135 26.95651611 -12.8392627 26.72553223 -12.08032227 26.48754883 C-8.06366832 25.30917862 -5.10337321 24.59559502 -1 26 C1.16202676 28.16202676 0.21365904 33.14134321 0.23828125 36.14453125 C0.246353 37.06586349 0.25442474 37.98719574 0.26274109 38.93644714 C0.27659967 40.89096179 0.28731385 42.84550082 0.29516602 44.80004883 C0.31236876 47.78969264 0.35623734 50.77822803 0.40039062 53.76757812 C0.41051796 55.66405435 0.41903394 57.56053999 0.42578125 59.45703125 C0.44328934 60.35194778 0.46079742 61.24686432 0.47883606 62.16889954 C0.45738747 68.30781063 0.45738747 68.30781063 -1.61791992 71.44848633 C-4.51962706 73.33844727 -7.22755188 74.34286236 -10.5390625 75.3671875 C-11.17339706 75.56753601 -11.80773163 75.76788452 -12.46128845 75.9743042 C-14.51242855 76.61950973 -16.56839575 77.24745403 -18.625 77.875 C-20.0354598 78.31435862 -21.44553441 78.75495567 -22.85522461 79.19677734 C-24.95502123 79.85482133 -27.05501144 80.51208708 -29.15653992 81.1645813 C-35.36729833 83.09623893 -41.52518173 85.17194407 -47.64501953 87.37451172 C-51.55176802 88.72574036 -54.86645382 89.33565638 -59 89 C-60.86430039 87.13569961 -60.16681707 84.0145322 -60.19287109 81.52416992 C-60.20513733 80.50946373 -60.20513733 80.50946373 -60.21765137 79.47425842 C-60.24254736 77.22633765 -60.2590327 74.97848024 -60.2734375 72.73046875 C-60.27876118 71.96409906 -60.28408485 71.19772938 -60.28956985 70.40813637 C-60.31632087 66.35112125 -60.33568866 62.29413711 -60.35009766 58.23706055 C-60.36674259 54.04345025 -60.41151227 49.85062633 -60.4624691 45.65731335 C-60.49610893 42.43596991 -60.50767147 39.21481373 -60.51332474 35.99331093 C-60.52004736 34.44750274 -60.53529586 32.9017073 -60.55921555 31.35606956 C-60.59080104 29.19139816 -60.59091546 27.02885455 -60.58349609 24.86401367 C-60.59158295 23.63236984 -60.5996698 22.40072601 -60.60800171 21.13175964 C-60 18 -60 18 -57.65615845 15.64179993 C-54.5296407 13.70926589 -51.74437608 12.8210173 -48.1875 11.875 C-42.0650626 10.20530861 -36.01118713 8.38235472 -29.9765625 6.421875 C-28.53887211 5.95832936 -27.10112747 5.49495192 -25.66333008 5.03173828 C-23.49342022 4.33235967 -21.32516777 3.62919151 -19.16073608 2.9130249 C-17.10695577 2.23460503 -15.04839779 1.57294839 -12.98828125 0.9140625 C-11.78727783 0.5217041 -10.58627441 0.1293457 -9.34887695 -0.27490234 C-5.82647022 -1.03757261 -3.47629165 -0.84034939 0 0 Z " fill="#E7E7E7" transform="translate(429,302)"/>
<path d="M0 0 C1 1 1 1 1.09765625 4.59765625 C1.0909822 6.08596867 1.07902183 7.57426432 1.0625 9.0625 C1.05798828 9.82111328 1.05347656 10.57972656 1.04882812 11.36132812 C1.0370068 13.24091871 1.01907078 15.12046899 1 17 C-0.35128257 17.63121136 -1.70622047 18.25459835 -3.0625 18.875 C-3.81660156 19.22304688 -4.57070313 19.57109375 -5.34765625 19.9296875 C-8.50648831 21.20438556 -11.72164422 22.08253088 -15 23 C-15.00364563 23.64479813 -15.00729126 24.28959625 -15.01104736 24.95393372 C-15.0527964 31.65365894 -15.12208828 38.35269424 -15.20751953 45.05200195 C-15.23577838 47.55355943 -15.2569683 50.05520701 -15.27099609 52.55688477 C-15.29235696 56.14907125 -15.33897407 59.74016864 -15.390625 63.33203125 C-15.39185364 64.45398392 -15.39308228 65.57593658 -15.39434814 66.73188782 C-15.41406677 67.77274033 -15.4337854 68.81359283 -15.45410156 69.88598633 C-15.46742523 71.2616552 -15.46742523 71.2616552 -15.48101807 72.66511536 C-16 75 -16 75 -17.89764404 76.76029968 C-22.65434416 79.56519227 -28.42725178 81.69659353 -34 81 C-35 80 -35 80 -35.12025452 77.94358826 C-35.11803391 77.03979935 -35.11581329 76.13601044 -35.11352539 75.20483398 C-35.11344986 74.18385117 -35.11337433 73.16286835 -35.11329651 72.11094666 C-35.10813522 71.0005452 -35.10297394 69.89014374 -35.09765625 68.74609375 C-35.0962413 67.61551041 -35.09482635 66.48492706 -35.09336853 65.32008362 C-35.08775019 61.69252935 -35.07519458 58.06503576 -35.0625 54.4375 C-35.05748736 51.98502693 -35.05292405 49.5325529 -35.04882812 47.08007812 C-35.0377748 41.05336455 -35.02101884 35.02668661 -35 29 C-35.53109375 29.21438721 -36.0621875 29.42877441 -36.609375 29.6496582 C-37.66898437 30.06477661 -37.66898437 30.06477661 -38.75 30.48828125 C-39.44609375 30.76454346 -40.1421875 31.04080566 -40.859375 31.32543945 C-44.02044425 32.32156563 -46.70852614 32.20571712 -50 32 C-50.10792837 29.39472895 -50.18724878 26.79391689 -50.25 24.1875 C-50.30027344 23.08051758 -50.30027344 23.08051758 -50.3515625 21.95117188 C-50.390625 19.79296875 -50.390625 19.79296875 -50 16 C-47.40491761 13.56103742 -44.83799889 12.42211951 -41.46484375 11.38671875 C-40.58175537 11.11093994 -39.69866699 10.83516113 -38.78881836 10.55102539 C-37.8478833 10.26606201 -36.90694824 9.98109863 -35.9375 9.6875 C-33.95825978 9.07575875 -31.97909454 8.46377487 -30 7.8515625 C-29.00097656 7.54508789 -28.00195312 7.23861328 -26.97265625 6.92285156 C-24.13980868 6.04340315 -21.3187371 5.13449323 -18.5 4.2109375 C-17.64543213 3.93290283 -16.79086426 3.65486816 -15.91040039 3.3684082 C-14.2986262 2.84313754 -12.68834771 2.31324803 -11.07983398 1.77807617 C-7.30387777 0.56143946 -4.02158199 -0.43998114 0 0 Z " fill="#E7E7E6" transform="translate(510,276)"/>
<path d="M0 0 C0.12360058 6.1929597 0.21434054 12.38520159 0.2746582 18.57910156 C0.29980212 20.68599961 0.33392207 22.79281043 0.37719727 24.89941406 C0.43785368 27.9279532 0.46621083 30.9553393 0.48828125 33.984375 C0.51408768 34.92617615 0.5398941 35.86797729 0.56648254 36.83831787 C0.56928525 43.37363617 0.56928525 43.37363617 -2.31567383 46.54785156 C-7.40780656 49.30255875 -12.22149541 50.41275033 -18 50 C-19.52022484 48.47977516 -19.14914755 47.12370967 -19.17700195 45.00268555 C-19.18983719 44.15477951 -19.20267242 43.30687347 -19.21589661 42.43327332 C-19.22328354 41.51041031 -19.23067047 40.5875473 -19.23828125 39.63671875 C-19.246353 38.69319046 -19.25442474 37.74966217 -19.26274109 36.77754211 C-19.27659992 34.77594857 -19.28731399 32.7743312 -19.29516602 30.77270508 C-19.31236997 27.71064407 -19.35623872 24.6496649 -19.40039062 21.58789062 C-19.41051783 19.6458413 -19.41903385 17.70378276 -19.42578125 15.76171875 C-19.44328934 14.84492844 -19.46079742 13.92813812 -19.47883606 12.98356628 C-19.45708426 6.60901683 -19.45708426 6.60901683 -17.09179688 3.45751953 C-15.13412048 2.0934523 -13.41417539 1.03554134 -11.1875 0.1875 C-10.56230469 -0.06644531 -9.93710937 -0.32039063 -9.29296875 -0.58203125 C-6.0749677 -1.16861747 -3.2103808 -0.50319082 0 0 Z " fill="#E5E5E5" transform="translate(455,319)"/>
<path d="M0 0 C0.13536629 2.41854446 0.23420279 4.82949783 0.3125 7.25 C0.35439453 7.93191406 0.39628906 8.61382812 0.43945312 9.31640625 C0.48828125 11.328125 0.48828125 11.328125 0 15 C-4.33703784 19.52816155 -9.25401433 20.90014598 -15.4375 21.125 C-16.7059375 21.063125 -16.7059375 21.063125 -18 21 C-19.34553453 18.30893093 -19.20594114 16.12834578 -19.25 13.125 C-19.27578125 12.07570313 -19.3015625 11.02640625 -19.328125 9.9453125 C-18.95643579 6.60895931 -18.37147013 5.33970937 -16 3 C-13.984375 1.953125 -13.984375 1.953125 -11.75 1.25 C-11.02296875 1.00765625 -10.2959375 0.7653125 -9.546875 0.515625 C-6.33128813 -0.13538338 -3.27149751 -0.07979262 0 0 Z " fill="#396A31" transform="translate(454,294)"/>
<path d="M0 0 C-1.86649878 2.07388754 -3.62772868 3.40540811 -6 4.9375 C-8.76229957 6.83658095 -10.21366683 8.23118359 -12 11 C-12.66 11.99 -13.32 12.98 -14 14 C-14.6875 11.6875 -14.6875 11.6875 -15 9 C-13.625 7.4375 -13.625 7.4375 -12 6 C-11.835 5.34 -11.67 4.68 -11.5 4 C-9.88266027 -2.46935893 -5.39389031 -0.97266874 0 0 Z " fill="#E2E2E2" transform="translate(345,188)"/>
<path d="M0 0 C0.99 0.33 1.98 0.66 3 1 C-0.23552709 4.88263251 -3.0952914 5.96742977 -8 7 C-10.9375 7.125 -10.9375 7.125 -13 7 C-9.30827405 3.46209597 -5.90609405 3.40884117 -1 3 C-0.67 2.01 -0.34 1.02 0 0 Z " fill="#3B5C38" transform="translate(450,308)"/>
<path d="M0 0 C0.66 0.33 1.32 0.66 2 1 C0.20049043 3.58391118 -1.61317961 5.93418366 -4 8 C-7.875 8.4375 -7.875 8.4375 -11 8 C-8.83385197 5.69125289 -6.60793392 3.94709819 -3.9375 2.25 C-2.89916016 1.57710938 -2.89916016 1.57710938 -1.83984375 0.890625 C-1.23269531 0.59671875 -0.62554687 0.3028125 0 0 Z " fill="#DADADA" transform="translate(396,262)"/>
<path d="M0 0 C0.99 0.33 1.98 0.66 3 1 C3 5.29 3 9.58 3 14 C1.68 13.34 0.36 12.68 -1 12 C-0.67 11.67 -0.34 11.34 0 11 C0.25910191 9.52887696 0.45873776 8.04698431 0.625 6.5625 C0.72039062 5.75941406 0.81578125 4.95632813 0.9140625 4.12890625 C1.17384017 1.94524234 1.17384017 1.94524234 0 0 Z " fill="#446A3F" transform="translate(451,295)"/>
<path d="M0 0 C1.65 0.99 3.3 1.98 5 3 C2.61426621 4.89213369 0.92824652 6.02391783 -2 7 C-4 5 -4 5 -5 3 C-3.35 2.01 -1.7 1.02 0 0 Z " fill="#E2E2E2" transform="translate(431,133)"/>
<path d="M0 0 C3.96 1.98 3.96 1.98 8 4 C7.01 4.99 6.02 5.98 5 7 C2.525 6.01 2.525 6.01 0 5 C0 3.35 0 1.7 0 0 Z " fill="#E1E1E1" transform="translate(210,242)"/>
<path d="M0 0 C4.75 0.75 4.75 0.75 7 3 C4.82575883 5.50037734 3.26954202 6.43628586 0 7 C0.2784375 6.1028125 0.2784375 6.1028125 0.5625 5.1875 C1.22093687 2.83591238 1.22093687 2.83591238 0 0 Z " fill="#E5E4E3" transform="translate(194,234)"/>
<path d="M0 0 C0 1.98 0 3.96 0 6 C-2.875 6.625 -2.875 6.625 -6 7 C-6.66 6.34 -7.32 5.68 -8 5 C-2.25 0 -2.25 0 0 0 Z " fill="#DBDBDB" transform="translate(503,369)"/>
<path d="M0 0 C-0.99 1.485 -0.99 1.485 -2 3 C-2.99 2.67 -3.98 2.34 -5 2 C-7.33299825 1.96045766 -9.66708189 1.95598268 -12 2 C-7.47621396 -1.01585736 -5.21315314 -1.04263063 0 0 Z " fill="#CBCCC9" transform="translate(429,302)"/>
<path d="M0 0 C0.99 0 1.98 0 3 0 C3.33 1.32 3.66 2.64 4 4 C2.02 4.99 0.04 5.98 -2 7 C-2.125 4.625 -2.125 4.625 -2 2 C-1.34 1.34 -0.68 0.68 0 0 Z " fill="#E2E2E2" transform="translate(431,260)"/>
<path d="M0 0 C0.66 0.66 1.32 1.32 2 2 C-2.95 4.475 -2.95 4.475 -8 7 C-8.66 6.34 -9.32 5.68 -10 5 C-9.01 5 -8.02 5 -7 5 C-6.67 4.01 -6.34 3.02 -6 2 C-4.0625 1.375 -4.0625 1.375 -2 1 C-1.34 0.67 -0.68 0.34 0 0 Z " fill="#DCDCDC" transform="translate(362,303)"/>
<path d="M0 0 C0 0.66 0 1.32 0 2 C0.66 2.33 1.32 2.66 2 3 C1.34 3 0.68 3 0 3 C0 3.66 0 4.32 0 5 C-2.31 4.67 -4.62 4.34 -7 4 C-2.25 0 -2.25 0 0 0 Z " fill="#DFDFDF" transform="translate(359,285)"/>
<path d="M0 0 C0.33 0.66 0.66 1.32 1 2 C0.67 2.99 0.34 3.98 0 5 C-1.32 4.67 -2.64 4.34 -4 4 C-4 4.66 -4 5.32 -4 6 C-4.99 6 -5.98 6 -7 6 C-6 3 -6 3 -2.9375 1.3125 C-1.968125 0.879375 -0.99875 0.44625 0 0 Z " fill="#DDDDDD" transform="translate(269,409)"/>
<path d="M0 0 C2.7839183 1.39195915 2.97898997 3.15575779 4 6 C3.34 6 2.68 6 2 6 C1.67 7.65 1.34 9.3 1 11 C0.67 11 0.34 11 0 11 C0 7.37 0 3.74 0 0 Z " fill="#F2EFF0" transform="translate(460,293)"/>
<path d="M0 0 C2 2 2 2 2.125 4.625 C2.08375 5.40875 2.0425 6.1925 2 7 C-0.475 6.01 -0.475 6.01 -3 5 C-3 4.01 -3 3.02 -3 2 C-2.01 1.34 -1.02 0.68 0 0 Z " fill="#DEDEDE" transform="translate(444,76)"/>
<path d="M0 0 C0 3.51716303 -0.82445585 4.37121748 -3 7 C-3.33 6.01 -3.66 5.02 -4 4 C-4.66 3.67 -5.32 3.34 -6 3 C-4.02 2.01 -2.04 1.02 0 0 Z " fill="#E4E4E4" transform="translate(265,339)"/>
<path d="M0 0 C0.33 0.99 0.66 1.98 1 3 C1.66 3.33 2.32 3.66 3 4 C2.67 5.32 2.34 6.64 2 8 C1.34 8 0.68 8 0 8 C0 7.01 0 6.02 0 5 C-0.99 4.67 -1.98 4.34 -3 4 C-2.34 4 -1.68 4 -1 4 C-0.67 2.68 -0.34 1.36 0 0 Z " fill="#DDDDDD" transform="translate(310,289)"/>
<path d="M0 0 C4.75 0.75 4.75 0.75 7 3 C4.23735711 3.59732819 1.83967231 4 -1 4 C-0.67 2.68 -0.34 1.36 0 0 Z " fill="#E4E4E4" transform="translate(187,230)"/>
<path d="M0 0 C0.66 0.99 1.32 1.98 2 3 C1.01 4.32 0.02 5.64 -1 7 C-1 6.34 -1 5.68 -1 5 C-2.32 4.67 -3.64 4.34 -5 4 C-4.360625 3.71125 -3.72125 3.4225 -3.0625 3.125 C-0.84793921 2.17176549 -0.84793921 2.17176549 0 0 Z " fill="#E2E2E2" transform="translate(293,394)"/>
</svg>
